<svg viewBox="0 0 500 500" version="1.1" xmlns="http://www.w3.org/2000/svg"
  desc="Created with imagetracer.js version 1.2.6">
  <path class="shape-1" stroke-width="1" opacity="0.9215686274509803"
    d="M 67.5 0 L 204.5 0 L 207 2.5 L 273 116.5 L 273 119.5 L 205 237 L 67.5 237 L 67 235.5 L 0 120.5 L 0 116.5 L 67.5 0 Z M 78 15 L 18 117 L 18 120 L 76 220 L 78 221 L 195 221 L 254 120 L 252 113 L 219 58 L 197 18 L 195 15 L 78 15 Z " />
  <path class="shape-2" stroke-width="1" opacity="0.9215686274509803"
    d="M 295.5 131 L 432.5 131 L 433 132.5 L 471 196.5 L 483 219.5 L 486 222.5 L 486 224.5 L 500 247.5 L 500 251.5 L 433 368 L 295.5 368 L 294 366.5 L 234 263.5 L 227 248.5 L 295.5 131 Z M 304 147 L 286 181 L 246 248 L 246 252 L 304 351 L 305 352 L 424 352 L 427 345 L 482 251 L 482 249 L 424 149 L 423 147 L 304 147 Z " />
  <path class="shape-3" stroke-width="1" opacity="0.9215686274509803"
    d="M 67 256 L 204.5 256 L 205 257.5 L 268 364.5 L 273 375.5 L 213 478.5 L 206 493 L 67.5 493 L 67 491.5 L 64 488.5 L 64 486.5 L 42 450.5 L 22 413.5 L 19 410.5 L 19 408.5 L 3 382.5 L 0 376.5 L 0 372.5 L 57 275.5 L 67 256 Z M 78 272 L 18 374 L 18 377 L 36 406 L 76 477 L 78 478 L 195 478 L 254 377 L 254 374 L 247 361 L 196 274 L 196 272 L 78 272 Z " />
  <path class="shape-4" stroke-width="1" opacity="0" d="M 0 0 L 67 0.5 L 0.5 116 L 0 0 Z " />
  <path class="shape-5" stroke-width="1" opacity="0"
    d="M 205.5 0 L 500 0 L 500 246.5 L 498 245.5 L 433 131 L 295.5 131 L 294 132.5 L 247 215.5 L 229 244.5 L 227 250.5 L 295.5 368 L 432.5 368 L 433 366.5 L 499.5 252 L 500 493 L 206.5 493 L 206 491.5 L 266 388.5 L 273 373.5 L 205 256 L 67.5 256 L 67 257.5 L 0.5 372 L 0 121.5 L 2 122.5 L 67 237 L 204.5 237 L 205 235.5 L 273 119.5 L 273 116.5 L 205.5 0 Z " />
  <path class="shape-6" stroke-width="1" opacity="0"
    d="M 77.5 15 L 194.5 15 L 197 17.5 L 219 57.5 L 252 112.5 L 254 119.5 L 194.5 221 L 77.5 221 L 76 219.5 L 18 119.5 L 18 116.5 L 77.5 15 Z " />
  <path class="shape-7" stroke-width="1" opacity="0"
    d="M 304 147 L 422.5 147 L 424 148.5 L 482 248.5 L 482 250.5 L 427 344.5 L 424 352 L 304.5 352 L 304 350.5 L 246 251.5 L 246 247.5 L 286 180.5 L 304 147 Z " />
  <path class="shape-8" stroke-width="1" opacity="0"
    d="M 77.5 272 L 195.5 272 L 196 273.5 L 247 360.5 L 254 373.5 L 254 376.5 L 194.5 478 L 77.5 478 L 76 476.5 L 36 405.5 L 18 376.5 L 18 373.5 L 77.5 272 Z " />
  <path class="shape-9" stroke-width="1" opacity="0" d="M 0.5 377 L 67 493 L 0 493 L 0.5 377 Z " />
  <!-- <svg viewBox="0 0 500 500" version="1.1" xmlns="http://www.w3.org/2000/svg"
  desc="Created with imagetracer.js version 1.2.6">
  <path fill="rgb(240,171,0)" stroke="rgb(240,171,0)" stroke-width="1" opacity="0.9215686274509803"
    d="M 67.5 0 L 204.5 0 L 207 2.5 L 273 116.5 L 273 119.5 L 205 237 L 67.5 237 L 67 235.5 L 0 120.5 L 0 116.5 L 67.5 0 Z M 78 15 L 18 117 L 18 120 L 76 220 L 78 221 L 195 221 L 254 120 L 252 113 L 219 58 L 197 18 L 195 15 L 78 15 Z " />
  <path fill="rgb(240,171,0)" stroke="rgb(240,171,0)" stroke-width="1" opacity="0.9215686274509803"
    d="M 295.5 131 L 432.5 131 L 433 132.5 L 471 196.5 L 483 219.5 L 486 222.5 L 486 224.5 L 500 247.5 L 500 251.5 L 433 368 L 295.5 368 L 294 366.5 L 234 263.5 L 227 248.5 L 295.5 131 Z M 304 147 L 286 181 L 246 248 L 246 252 L 304 351 L 305 352 L 424 352 L 427 345 L 482 251 L 482 249 L 424 149 L 423 147 L 304 147 Z " />
  <path fill="rgb(240,171,0)" stroke="rgb(240,171,0)" stroke-width="1" opacity="0.9215686274509803"
    d="M 67 256 L 204.5 256 L 205 257.5 L 268 364.5 L 273 375.5 L 213 478.5 L 206 493 L 67.5 493 L 67 491.5 L 64 488.5 L 64 486.5 L 42 450.5 L 22 413.5 L 19 410.5 L 19 408.5 L 3 382.5 L 0 376.5 L 0 372.5 L 57 275.5 L 67 256 Z M 78 272 L 18 374 L 18 377 L 36 406 L 76 477 L 78 478 L 195 478 L 254 377 L 254 374 L 247 361 L 196 274 L 196 272 L 78 272 Z " />
  <path fill="rgb(0,0,0)" stroke="rgb(0,0,0)" stroke-width="1" opacity="0" d="M 0 0 L 67 0.5 L 0.5 116 L 0 0 Z " />
  <path fill="rgb(0,0,0)" stroke="rgb(0,0,0)" stroke-width="1" opacity="0"
    d="M 205.5 0 L 500 0 L 500 246.5 L 498 245.5 L 433 131 L 295.5 131 L 294 132.5 L 247 215.5 L 229 244.5 L 227 250.5 L 295.5 368 L 432.5 368 L 433 366.5 L 499.5 252 L 500 493 L 206.5 493 L 206 491.5 L 266 388.5 L 273 373.5 L 205 256 L 67.5 256 L 67 257.5 L 0.5 372 L 0 121.5 L 2 122.5 L 67 237 L 204.5 237 L 205 235.5 L 273 119.5 L 273 116.5 L 205.5 0 Z " />
  <path fill="rgb(0,0,0)" stroke="rgb(0,0,0)" stroke-width="1" opacity="0"
    d="M 77.5 15 L 194.5 15 L 197 17.5 L 219 57.5 L 252 112.5 L 254 119.5 L 194.5 221 L 77.5 221 L 76 219.5 L 18 119.5 L 18 116.5 L 77.5 15 Z " />
  <path fill="rgb(0,0,0)" stroke="rgb(0,0,0)" stroke-width="1" opacity="0"
    d="M 304 147 L 422.5 147 L 424 148.5 L 482 248.5 L 482 250.5 L 427 344.5 L 424 352 L 304.5 352 L 304 350.5 L 246 251.5 L 246 247.5 L 286 180.5 L 304 147 Z " />
  <path fill="rgb(0,0,0)" stroke="rgb(0,0,0)" stroke-width="1" opacity="0"
    d="M 77.5 272 L 195.5 272 L 196 273.5 L 247 360.5 L 254 373.5 L 254 376.5 L 194.5 478 L 77.5 478 L 76 476.5 L 36 405.5 L 18 376.5 L 18 373.5 L 77.5 272 Z " />
  <path fill="rgb(0,0,0)" stroke="rgb(0,0,0)" stroke-width="1" opacity="0"
    d="M 0.5 377 L 67 493 L 0 493 L 0.5 377 Z " />
</svg> -->
</svg>